<svg width="1920" height="1080" viewBox="0 0 1920 1080" fill="none" xmlns="http://www.w3.org/2000/svg">
<g clip-path="url(#clip0_31_2)">
<rect width="1920" height="1080" fill="url(#paint0_linear_31_2)"/>
<rect x="-400.516" y="1373.5" width="805.688" height="784.558" rx="56" transform="rotate(-47.6875 -400.516 1373.5)" fill="#0F0068" fill-opacity="0.41"/>
<path d="M476.552 1463.88C445.547 1439.44 448.884 1391.46 482.972 1371.54L1490.94 782.773C1508.15 772.72 1529.4 772.572 1546.75 782.384L2410.08 1270.69C2441.79 1288.63 2448.2 1331.59 2423.11 1358L1567.43 2258.97C1547.51 2279.94 1514.89 2282.29 1492.16 2264.38L476.552 1463.88Z" fill="#002E88" fill-opacity="0.23"/>
<path d="M105.683 1226.91C94.467 1202.81 101.752 1174.13 123.115 1158.3L849.093 620.298C867.583 606.595 892.573 605.6 912.094 617.788L1828.46 1189.94C1859.97 1209.61 1863.94 1253.95 1836.43 1278.91L692.707 2316.61C664.753 2341.97 620.224 2332.98 604.303 2298.75L105.683 1226.91Z" fill="#0034EF" fill-opacity="0.23"/>
<circle cx="1746.12" cy="163.5" r="27.5" fill="white"/>
<circle cx="1718.62" cy="170.375" r="20.625" fill="white"/>
<circle cx="1773.62" cy="170.375" r="14.3229" fill="white"/>
<path fill-rule="evenodd" clip-rule="evenodd" d="M1463.83 165.139C1454.76 169.885 1444.44 172.569 1433.5 172.569C1397.33 172.569 1368 143.244 1368 107.069C1368 94.1687 1371.73 82.1391 1378.17 72C1357.26 82.9412 1343 104.839 1343 130.069C1343 166.244 1372.33 195.569 1408.5 195.569C1431.77 195.569 1452.21 183.431 1463.83 165.139Z" fill="#D58712"/>
<circle cx="1639" cy="289" r="48" fill="white"/>
<circle cx="1591" cy="301" r="36" fill="white"/>
<circle cx="1687" cy="301" r="25" fill="white"/>
<circle cx="1158.63" cy="190.531" r="61.6327" fill="white"/>
<circle cx="1229.65" cy="145.633" r="61.6327" fill="white"/>
<circle cx="1229.65" cy="201.959" r="82.0408" fill="white"/>
<circle cx="1291.69" cy="151.347" r="50.2041" fill="white"/>
<circle cx="1303.12" cy="201.959" r="50.2041" fill="white"/>
<circle cx="1352.92" cy="184" r="50.2041" fill="white"/>
<path d="M1279.55 38.7381C1279.86 37.8398 1281.14 37.8398 1281.45 38.7381L1282.18 40.8542C1282.31 41.2574 1282.69 41.5279 1283.12 41.5279H1285.35C1286.33 41.5279 1286.73 42.7983 1285.91 43.3533L1284.22 44.5136C1283.85 44.7679 1283.69 45.2396 1283.84 45.6654L1284.51 47.6131C1284.82 48.5238 1283.79 49.3087 1283 48.7649L1281.06 47.4417C1280.72 47.209 1280.28 47.209 1279.94 47.4417L1278 48.7649C1277.21 49.3087 1276.18 48.5238 1276.49 47.6131L1277.16 45.6654C1277.31 45.2396 1277.15 44.7679 1276.78 44.5136L1275.09 43.3533C1274.27 42.7983 1274.67 41.5279 1275.65 41.5279H1277.88C1278.31 41.5279 1278.69 41.2574 1278.82 40.8542L1279.55 38.7381Z" fill="#C27A0E"/>
</g>
<defs>
<linearGradient id="paint0_linear_31_2" x1="960" y1="540" x2="-28" y2="1147.5" gradientUnits="userSpaceOnUse">
<stop stop-color="#1B0B49"/>
<stop offset="1" stop-color="#141414"/>
</linearGradient>
<clipPath id="clip0_31_2">
<rect width="1920" height="1080" fill="white"/>
</clipPath>
</defs>
</svg>
