<svg width="1920" height="1080" viewBox="0 0 1920 1080" fill="none" xmlns="http://www.w3.org/2000/svg">
<g clip-path="url(#clip0_29_2)">
<rect width="1920" height="1080" fill="url(#paint0_linear_29_2)"/>
<rect x="-400.516" y="1373.5" width="805.688" height="784.558" rx="56" transform="rotate(-47.6875 -400.516 1373.5)" fill="#EF8F00" fill-opacity="0.41"/>
<path d="M476.552 1463.88C445.547 1439.44 448.884 1391.46 482.972 1371.54L1490.94 782.773C1508.15 772.72 1529.4 772.572 1546.75 782.384L2410.08 1270.69C2441.79 1288.63 2448.2 1331.59 2423.11 1358L1567.43 2258.97C1547.51 2279.94 1514.89 2282.29 1492.16 2264.38L476.552 1463.88Z" fill="#EF8F00" fill-opacity="0.23"/>
<path d="M105.683 1226.91C94.467 1202.81 101.752 1174.13 123.115 1158.3L849.093 620.298C867.583 606.595 892.573 605.6 912.094 617.788L1828.46 1189.94C1859.97 1209.61 1863.94 1253.95 1836.43 1278.91L692.707 2316.61C664.753 2341.97 620.224 2332.98 604.303 2298.75L105.683 1226.91Z" fill="#EF8F00" fill-opacity="0.23"/>
<circle cx="1158.63" cy="190.531" r="61.6327" fill="white"/>
<circle cx="1229.65" cy="145.633" r="61.6327" fill="white"/>
<circle cx="1229.65" cy="201.959" r="82.0408" fill="white"/>
<circle cx="1291.69" cy="151.347" r="50.2041" fill="white"/>
<circle cx="1303.12" cy="201.959" r="50.2041" fill="white"/>
<circle cx="1352.92" cy="184" r="50.2041" fill="white"/>
<circle cx="1639" cy="289" r="48" fill="white"/>
<circle cx="1591" cy="301" r="36" fill="white"/>
<circle cx="1687" cy="301" r="25" fill="white"/>
<circle cx="1746.12" cy="163.5" r="27.5" fill="white"/>
<circle cx="1718.62" cy="170.375" r="20.625" fill="white"/>
<circle cx="1773.62" cy="170.375" r="14.3229" fill="white"/>
</g>
<defs>
<linearGradient id="paint0_linear_29_2" x1="960" y1="540" x2="-28" y2="1147.5" gradientUnits="userSpaceOnUse">
<stop offset="0.0275123" stop-color="#FFF0CA"/>
<stop offset="0.95672" stop-color="white"/>
</linearGradient>
<clipPath id="clip0_29_2">
<rect width="1920" height="1080" fill="white"/>
</clipPath>
</defs>
</svg>
