<svg width="530" height="548" viewBox="0 0 530 548" fill="none" xmlns="http://www.w3.org/2000/svg">
    <circle cx="316" cy="213" r="156" fill="url(#paint0_linear_39_23)" />
    <ellipse cx="205.5" cy="306.5" rx="125.5" ry="120.5" fill="white" />
    <ellipse cx="125.5" cy="427.5" rx="125.5" ry="120.5" fill="white" />
    <ellipse cx="365.5" cy="413.5" rx="125.5" ry="120.5" fill="white" />
    <ellipse cx="265.5" cy="427.5" rx="125.5" ry="120.5" fill="white" />
    <rect x="387.28" width="31" height="49" rx="15" transform="rotate(21.9049 387.28 0)" fill="#EC9D26" />
    <rect x="215" y="12.4215" width="31" height="49" rx="15" transform="rotate(-23.6215 215 12.4215)" fill="#EC9D26" />
    <rect x="102.229" y="141.823" width="31" height="49" rx="15" transform="rotate(-64.8903 102.229 141.823)"
        fill="#EC9D26" />
    <rect x="517.692" y="112.886" width="31" height="49" rx="15" transform="rotate(67.5768 517.692 112.886)"
        fill="#EC9D26" />
    <rect x="528.26" y="282.401" width="31" height="49" rx="15" transform="rotate(108.319 528.26 282.401)"
        fill="#EC9D26" />
    <defs>
        <linearGradient id="paint0_linear_39_23" x1="409.5" y1="83.5" x2="316" y2="369" gradientUnits="userSpaceOnUse">
            <stop stop-color="#EFA028" />
            <stop offset="1" stop-color="#734500" />
        </linearGradient>
    </defs>
</svg>